<?xml version="1.0" encoding="utf-8"?>
<!-- Generator: Adobe Illustrator 18.1.0, SVG Export Plug-In . SVG Version: 6.00 Build 0)  -->
<!DOCTYPE svg PUBLIC "-//W3C//DTD SVG 1.1//EN" "http://www.w3.org/Graphics/SVG/1.1/DTD/svg11.dtd">
<svg version="1.1" id="Layer_1" xmlns="http://www.w3.org/2000/svg" xmlns:xlink="http://www.w3.org/1999/xlink" x="0px" y="0px"
	 viewBox="0 0 100 100" enable-background="new 0 0 100 100" xml:space="preserve">
<path d="M50.7,24.1c2.7,0,5.2,1.1,6.9,2.9l0.1,0.1c1.7,1.8,2.8,4.2,2.8,6.9v0.4c0.4,0.1,0.8,0.3,1.2,0.4l6.6-3.9
	c1-0.6,2.4-0.3,3,0.8c0.3,0.5,0.4,1,0.2,1.6L70.1,40c0.9,0.9,1.7,1.8,2.4,2.7c0.7,0.9,1.2,1.8,1.7,2.8h0.3c1.3,0,2.5,0.5,3.4,1.4
	c0.9,0.9,1.4,2.1,1.4,3.4V57c0,1.3-0.5,2.5-1.4,3.4l0,0c-0.9,0.9-2.1,1.4-3.4,1.4h-0.3c-0.6,1.2-1.3,2.3-2.1,3.3
	c-0.7,1-1.6,1.9-2.5,2.7l1,1.6l0.1,0.2c0.8,1.4,0.9,3,0.5,4.5c-0.4,1.5-1.4,2.9-2.9,3.7l-0.1,0.1c-1.4,0.8-3.1,0.9-4.5,0.5l0,0
	c-1.5-0.4-2.9-1.4-3.7-2.9l-0.1-0.1l-1.1-1.9c-0.8,0.2-1.7,0.4-2.6,0.5c-1.5,0.2-3,0.4-4.5,0.4c-1.5,0-3-0.1-4.5-0.4
	c-0.9-0.1-1.8-0.3-2.6-0.5l-1.2,2.1c-0.8,1.5-2.2,2.5-3.7,2.9l-0.1,0c-1.5,0.4-3.1,0.2-4.5-0.7l-0.1,0c-1.4-0.8-2.4-2.2-2.8-3.7
	c-0.4-1.5-0.2-3.2,0.6-4.6v0l1-1.6c-1.8-1.7-3.4-3.6-4.5-5.7c-1.2-2.3-2-4.9-2.1-7.5l-0.3-0.1l-0.1,0c-0.7-0.3-1.4-0.8-2-1.4
	c-1.2-1.2-1.9-2.8-1.9-4.5c0-1.7,0.7-3.3,1.9-4.5c0.5-0.5,1.4-0.5,1.9,0c0.5,0.5,0.5,1.3,0,1.9c-0.7,0.7-1.1,1.7-1.1,2.7
	c0,1,0.4,2,1.1,2.7c0.2,0.2,0.4,0.3,0.6,0.5c0.5-5,3.2-9.5,7.2-12.8c1.9-1.6,4.1-2.9,6.5-3.9c0-0.3,0-0.7,0-1c0-2.7,1.1-5.1,2.9-6.9
	v0C45.5,25.2,48,24.1,50.7,24.1L50.7,24.1z M51.6,32.9L51.6,32.9c1.9,0,3.9,0.2,5.7,0.6l0.5,0.1c-0.1-1.8-0.8-3.5-2-4.7l-0.1-0.1
	c-1.3-1.3-3.1-2.1-5.1-2.1c-2,0-3.8,0.8-5.1,2.1c-1.3,1.3-2.1,3.1-2.1,5.1v0.1C46,33.3,48.8,32.9,51.6,32.9L51.6,32.9z M56.4,37.8
	L56.4,37.8c-1.5-0.3-3.2-0.5-4.9-0.5c-5.6,0-10.7,1.9-14.4,4.9c-3.5,2.9-5.7,7-5.7,11.4c0,2.3,0.6,4.5,1.6,6.4
	c1.1,2.1,2.7,3.9,4.7,5.5c0.9,0.7,1.1,1.9,0.6,2.9l-1.8,3.1c0,0.1-0.1,0.2-0.1,0.3c-0.2,0.4-0.2,0.8-0.1,1.2c0.1,0.4,0.4,0.8,0.7,1
	l0.2,0.1c0.4,0.2,0.8,0.2,1.2,0.1l0.1,0c0.4-0.1,0.8-0.4,1-0.8l2-3.5c0.5-1,1.6-1.4,2.6-1.1c1.2,0.4,2.4,0.7,3.7,0.9
	c1.2,0.2,2.5,0.3,3.8,0.3c1.3,0,2.6-0.1,3.8-0.3c1.2-0.2,2.4-0.5,3.7-0.9c1-0.3,2,0.1,2.6,1l2,3.4c0.1,0.1,0.1,0.2,0.2,0.3
	c0.2,0.4,0.6,0.6,1,0.7v0c0.4,0.1,0.8,0.1,1.2-0.1l0.2-0.1c0.3-0.2,0.6-0.6,0.7-1c0.1-0.4,0.1-0.8-0.1-1.2c0-0.1-0.1-0.2-0.2-0.3
	l-1.8-3.1c-0.5-0.9-0.3-2.2,0.6-2.9c1.2-0.9,2.3-2,3.2-3.2c0.9-1.1,1.6-2.3,2.1-3.5c0.3-0.9,1.1-1.5,2.1-1.5h1.7
	c0.1,0,0.2-0.1,0.3-0.1l0,0l0,0c0.1-0.1,0.1-0.2,0.1-0.3v-6.6c0-0.1,0-0.2-0.1-0.3c-0.1-0.1-0.2-0.1-0.3-0.1h-1.7
	c-0.9,0-1.7-0.5-2-1.4c-0.5-1.1-1.1-2.2-1.8-3.2c-0.7-1-1.6-2-2.6-2.8c-0.6-0.5-0.9-1.3-0.8-2.1l0.7-3.2L63,39
	c-0.6,0.4-1.4,0.5-2.1,0.2C59.6,38.6,58,38.1,56.4,37.8L56.4,37.8z M64.7,46L64.7,46c-1.1,0-2,0.4-2.7,1.1c-0.7,0.7-1.1,1.6-1.1,2.7
	c0,1.1,0.4,2,1.1,2.7l0,0c0.7,0.7,1.6,1.1,2.7,1.1c1,0,2-0.4,2.7-1.1c0.7-0.7,1.1-1.6,1.1-2.7c0-1-0.4-1.9-1-2.6l-0.1-0.1
	C66.7,46.4,65.7,46,64.7,46L64.7,46z M65.5,49L65.5,49c-0.2-0.2-0.5-0.3-0.8-0.3c-0.3,0-0.6,0.1-0.8,0.3c-0.2,0.2-0.3,0.5-0.3,0.8
	c0,0.3,0.1,0.6,0.3,0.8l0,0c0.2,0.2,0.5,0.3,0.8,0.3c0.3,0,0.6-0.1,0.8-0.3c0.2-0.2,0.3-0.5,0.3-0.8C65.8,49.5,65.7,49.2,65.5,49
	L65.5,49L65.5,49L65.5,49z"/>
</svg>
