<?xml version="1.0" standalone="no"?>
<!DOCTYPE svg PUBLIC "-//W3C//DTD SVG 20010904//EN"
 "http://www.w3.org/TR/2001/REC-SVG-20010904/DTD/svg10.dtd">
<svg version="1.0" xmlns="http://www.w3.org/2000/svg"
 width="700.000000pt" height="700.000000pt" viewBox="0 0 700.000000 700.000000"
 preserveAspectRatio="xMidYMid meet">
<metadata>
Created by potrace 1.11, written by Peter Selinger 2001-2013
</metadata>
<g transform="translate(0.000000,700.000000) scale(0.100000,-0.100000)"
fill="#000000" stroke="none">
<path d="M3385 6949 c-1634 -83 -2979 -1307 -3214 -2924 -74 -506 -31 -1049
121 -1525 117 -366 288 -702 513 -1006 433 -584 1031 -1011 1725 -1232 210
-67 461 -118 705 -143 141 -14 508 -14 650 0 808 83 1528 423 2096 990 609
610 961 1406 998 2259 25 587 -82 1120 -329 1639 -412 864 -1182 1525 -2100
1802 -237 72 -528 124 -756 136 -224 11 -263 12 -409 4z m325 -1010 c380 -61
671 -394 683 -779 l2 -80 57 -19 58 -20 292 171 c257 151 299 172 345 176 69
6 95 -2 138 -40 45 -39 65 -77 65 -122 0 -19 -27 -162 -60 -318 -33 -156 -60
-289 -60 -297 0 -8 34 -49 75 -92 90 -94 181 -215 232 -308 l37 -68 61 -6
c158 -15 288 -111 348 -259 21 -51 22 -67 22 -418 0 -410 -2 -424 -74 -520
-75 -99 -174 -155 -296 -167 l-61 -6 -43 -76 c-64 -111 -199 -288 -275 -359
-36 -34 -66 -65 -66 -70 0 -5 19 -38 42 -73 90 -140 121 -256 100 -381 -7 -40
-20 -93 -29 -118 -44 -118 -144 -225 -270 -287 l-77 -38 -130 0 c-113 0 -139
3 -191 23 -142 55 -215 127 -330 324 -22 38 -44 68 -50 68 -5 0 -41 -7 -80
-14 -174 -36 -321 -50 -535 -50 -220 0 -226 1 -561 61 -24 5 -31 -4 -95 -113
-42 -73 -89 -138 -122 -171 -119 -117 -321 -171 -477 -129 -135 37 -257 123
-320 226 -120 197 -111 385 30 605 19 30 35 56 35 58 0 2 -37 41 -81 88 -281
291 -428 594 -474 979 -6 44 -7 46 -63 70 -81 35 -209 163 -250 251 -43 90
-55 155 -50 263 6 106 29 175 90 266 76 114 158 142 224 76 24 -24 34 -43 34
-65 0 -33 -31 -104 -51 -117 -6 -3 -24 -34 -40 -68 -55 -117 -33 -256 57 -352
52 -56 57 -53 68 36 14 114 75 299 143 435 176 348 542 680 943 854 l75 33 2
126 c1 94 6 147 22 206 71 265 271 482 529 572 123 42 270 55 402 33z"/>
<path d="M3428 5715 c-263 -64 -457 -309 -458 -577 l0 -66 58 13 c31 8 98 21
147 29 86 15 92 18 126 57 l35 42 21 -36 21 -35 69 5 c37 3 70 7 72 9 3 3 -5
17 -16 32 -74 101 -68 181 19 245 39 29 113 27 168 -4 l42 -24 27 33 c31 37
42 39 64 14 15 -17 15 -21 -10 -55 l-26 -36 52 -56 c28 -31 51 -60 51 -65 0
-5 -12 -23 -26 -40 -15 -17 -24 -33 -21 -36 3 -3 56 -10 119 -15 62 -6 137
-13 166 -18 l52 -8 0 51 c0 101 -53 237 -130 333 -76 96 -209 179 -332 208
-78 18 -214 18 -290 0z"/>
<path d="M3601 5331 c-24 -24 -26 -40 -8 -65 13 -17 16 -16 45 20 33 40 39 54
23 54 -5 0 -16 3 -24 6 -9 3 -25 -4 -36 -15z"/>
<path d="M3692 5245 c-28 -37 -32 -47 -22 -64 9 -18 20 -21 86 -21 l75 0 -29
43 c-17 23 -40 52 -53 64 l-24 21 -33 -43z"/>
<path d="M4735 4748 c-163 -85 -172 -89 -225 -85 -31 2 -97 19 -150 39 -265
101 -621 147 -905 119 -778 -78 -1371 -529 -1501 -1141 -21 -101 -24 -321 -5
-420 26 -139 93 -306 173 -431 60 -94 182 -230 286 -321 78 -69 104 -98 117
-133 29 -76 18 -117 -76 -277 -103 -176 -115 -209 -100 -264 23 -85 81 -122
168 -109 63 9 83 32 191 221 99 174 136 219 191 234 52 14 67 13 163 -15 271
-78 556 -103 823 -70 110 13 196 31 392 80 138 35 185 1 333 -246 96 -160 105
-172 148 -191 63 -28 115 -20 159 25 36 35 57 96 46 132 -3 11 -48 93 -101
183 -75 129 -96 173 -100 211 -7 77 21 126 121 209 156 130 291 300 379 477
79 158 91 166 258 174 l115 6 0 305 0 305 -115 5 c-158 7 -170 15 -251 168
-93 175 -172 285 -286 397 -102 101 -133 148 -133 203 0 15 13 88 29 162 16
74 29 135 28 136 -1 0 -78 -39 -172 -88z m127 -698 c89 -25 176 -126 198 -230
41 -194 -103 -374 -300 -374 -132 0 -222 54 -279 167 -30 58 -34 76 -34 139 0
112 45 201 131 260 79 54 178 68 284 38z"/>
<path d="M4704 3841 c-70 -43 -63 -146 12 -177 73 -30 139 13 139 92 0 81 -83
128 -151 85z"/>
</g>
</svg>
